<svg id="Слой_1" data-name="Слой 1" xmlns="http://www.w3.org/2000/svg" viewBox="0 0 109 89.76"><defs><style>.cls-1{fill:#fff;}</style></defs><title>лого кампус</title><g id="Слой_1-2" data-name="Слой 1-2"><path class="cls-1" d="M64.38,42.32H60.62a.31.31,0,0,1-.31-.31V37.19a.31.31,0,0,1,.31-.31h3.76a.31.31,0,0,1,.31.31V42A.31.31,0,0,1,64.38,42.32Zm-3.45-.62h3.14V37.5H60.93Z" transform="translate(-5.81 -5.84)"/><path class="cls-1" d="M65,55H60a.31.31,0,0,1-.31-.31V46.52a.31.31,0,0,1,.31-.31h5a.31.31,0,0,1,.31.31v8.21A.31.31,0,0,1,65,55Zm-4.69-.62h4.38V46.83H60.31Z" transform="translate(-5.81 -5.84)"/><path class="cls-1" d="M57.34,42.32H54.87a.31.31,0,0,1-.31-.31V37.19a.31.31,0,0,1,.31-.31h2.47a.31.31,0,0,1,.31.31V42A.31.31,0,0,1,57.34,42.32Zm-2.18-.62H57V37.5H55.18Z" transform="translate(-5.81 -5.84)"/><path class="cls-1" d="M70.15,42.32H67.68a.31.31,0,0,1-.31-.31V37.19a.31.31,0,0,1,.31-.31h2.47a.31.31,0,0,1,.31.31V42A.31.31,0,0,1,70.15,42.32ZM68,41.7h1.85V37.5H68Z" transform="translate(-5.81 -5.84)"/><path class="cls-1" d="M57.34,52.49H54.87a.31.31,0,0,1-.31-.31V47.35a.31.31,0,0,1,.31-.31h2.47a.31.31,0,0,1,.31.31v4.83A.31.31,0,0,1,57.34,52.49Zm-2.18-.62H57V47.66H55.18Z" transform="translate(-5.81 -5.84)"/><path class="cls-1" d="M70.15,52.49H67.68a.31.31,0,0,1-.31-.31V47.35a.31.31,0,0,1,.31-.31h2.47a.31.31,0,0,1,.31.31v4.83A.31.31,0,0,1,70.15,52.49ZM68,51.87h1.85V47.66H68Z" transform="translate(-5.81 -5.84)"/><path class="cls-1" d="M73.08,55H52a.31.31,0,0,1-.31-.31V33.61A.31.31,0,0,1,52,33.3H73.08a.31.31,0,0,1,.31.31V54.73A.31.31,0,0,1,73.08,55Zm-20.79-.62H72.77V33.94H52.26Z" transform="translate(-5.81 -5.84)"/><path class="cls-1" d="M73.08,57.15H52a.31.31,0,0,1-.31-.31V54.73a.31.31,0,0,1,.31-.31H73.08a.31.31,0,0,1,.31.31v2.11A.31.31,0,0,1,73.08,57.15Zm-20.79-.62H72.77V55H52.26Z" transform="translate(-5.81 -5.84)"/><path class="cls-1" d="M74.19,33.94H50.81a.31.31,0,0,1-.31-.31V31.52a.31.31,0,0,1,.31-.31H74.19a.31.31,0,0,1,.31.31v2.09a.31.31,0,0,1-.29.33h0Zm-23.07-.62H73.88V31.83H51.12Z" transform="translate(-5.81 -5.84)"/><path class="cls-1" d="M65.32,37.5H59.68a.31.31,0,0,1-.31-.31V36.13a.31.31,0,0,1,.31-.31h5.64a.31.31,0,0,1,.31.31v1.06A.31.31,0,0,1,65.32,37.5ZM60,36.88h5v-.44H60Z" transform="translate(-5.81 -5.84)"/><path class="cls-1" d="M70.93,37.5h-4a.31.31,0,0,1-.31-.31V36.13a.31.31,0,0,1,.31-.31h4a.31.31,0,0,1,.31.31v1.06a.31.31,0,0,1-.31.31Zm-3.75-.62h3.43v-.44H67.18Z" transform="translate(-5.81 -5.84)"/><path class="cls-1" d="M58.12,37.5H54.06a.3.3,0,0,1-.3-.31V36.13a.3.3,0,0,1,.3-.31h4.06a.31.31,0,0,1,.31.31v1.06A.33.33,0,0,1,58.12,37.5Zm-3.74-.62h3.44v-.44H54.37Z" transform="translate(-5.81 -5.84)"/><path class="cls-1" d="M49.21,38.63H45.15a.31.31,0,0,1-.31-.31v-1a.31.31,0,0,1,.31-.31H49.2a.31.31,0,0,1,.31.31v1A.32.32,0,0,1,49.21,38.63ZM45.46,38H48.9v-.43H45.45Z" transform="translate(-5.81 -5.84)"/><path class="cls-1" d="M40.49,38.63H36.43a.31.31,0,0,1-.31-.31v-1a.31.31,0,0,1,.31-.31h4.06a.31.31,0,0,1,.31.31v1A.31.31,0,0,1,40.49,38.63ZM36.74,38h3.44v-.43H36.74Z" transform="translate(-5.81 -5.84)"/><path class="cls-1" d="M31.77,38.63H27.71a.31.31,0,0,1-.31-.31v-1a.31.31,0,0,1,.31-.31h4.06a.3.3,0,0,1,.3.31v1A.31.31,0,0,1,31.77,38.63ZM28,38h3.43v-.43H28Z" transform="translate(-5.81 -5.84)"/><path class="cls-1" d="M32.41,35.9H31.35a.31.31,0,0,1-.31-.31v-2a.31.31,0,0,1,.31-.31h1.06a.31.31,0,0,1,.31.31v2a.3.3,0,0,1-.29.32h0Zm-.75-.61h.44V33.94h-.44Z" transform="translate(-5.81 -5.84)"/><path class="cls-1" d="M39.34,35.9H38.28a.31.31,0,0,1-.31-.31v-2a.31.31,0,0,1,.31-.31h1.06a.31.31,0,0,1,.31.31v2a.3.3,0,0,1-.29.32h0Zm-.75-.61H39V33.94h-.44Z" transform="translate(-5.81 -5.84)"/><path class="cls-1" d="M46.27,35.9H45.21a.3.3,0,0,1-.3-.31v-2a.3.3,0,0,1,.3-.31h1.06a.31.31,0,0,1,.31.31v2a.3.3,0,0,1-.29.32h0Zm-.75-.61H46V33.94h-.44Z" transform="translate(-5.81 -5.84)"/><path class="cls-1" d="M49.73,35.9h-1a.31.31,0,0,1-.31-.31v-2a.31.31,0,0,1,.31-.31h1a.31.31,0,0,1,.31.31v2a.3.3,0,0,1-.29.32h0ZM49,35.29h.44V33.94H49Z" transform="translate(-5.81 -5.84)"/><path class="cls-1" d="M25.48,35.9H24.42a.31.31,0,0,1-.31-.31v-2a.31.31,0,0,1,.31-.31h1.06a.31.31,0,0,1,.31.31v2a.3.3,0,0,1-.29.32h0Zm-.75-.61h.44V33.94h-.44Z" transform="translate(-5.81 -5.84)"/><path class="cls-1" d="M22,35.9H21a.31.31,0,0,1-.31-.31v-2A.31.31,0,0,1,21,33.3H22a.3.3,0,0,1,.3.31v2a.3.3,0,0,1-.29.32h0Zm-.75-.61h.44V33.94h-.47Z" transform="translate(-5.81 -5.84)"/><path class="cls-1" d="M18.55,35.9H17.49a.31.31,0,0,1-.31-.31v-2a.31.31,0,0,1,.31-.31h1.06a.31.31,0,0,1,.31.31v2a.3.3,0,0,1-.29.32h0Zm-.75-.61h.44V33.94H17.8Z" transform="translate(-5.81 -5.84)"/><path class="cls-1" d="M29,35.9H27.89a.31.31,0,0,1-.31-.31v-2a.31.31,0,0,1,.31-.31H29a.3.3,0,0,1,.3.31v2a.3.3,0,0,1-.28.32h0Zm-.75-.61h.44V33.94h-.43Z" transform="translate(-5.81 -5.84)"/><path class="cls-1" d="M35.87,35.9H34.81a.3.3,0,0,1-.3-.31v-2a.3.3,0,0,1,.3-.31h1.06a.31.31,0,0,1,.31.31v2a.3.3,0,0,1-.29.32h0Zm-.75-.61h.44V33.94h-.44Z" transform="translate(-5.81 -5.84)"/><path class="cls-1" d="M42.8,35.9h-1a.31.31,0,0,1-.31-.31v-2a.31.31,0,0,1,.31-.31h1a.31.31,0,0,1,.31.31v2a.3.3,0,0,1-.29.32h0Zm-.75-.61h.44V33.94h-.44Z" transform="translate(-5.81 -5.84)"/><path class="cls-1" d="M23.05,38.63H19a.31.31,0,0,1-.31-.31v-1A.31.31,0,0,1,19,37h4.05a.31.31,0,0,1,.31.31v1A.31.31,0,0,1,23.05,38.63ZM19.31,38h3.43v-.43H19.31Z" transform="translate(-5.81 -5.84)"/><path class="cls-1" d="M49.21,47.66H45.15a.31.31,0,0,1-.31-.31V46.3a.31.31,0,0,1,.31-.31H49.2a.31.31,0,0,1,.31.31v1.05A.32.32,0,0,1,49.21,47.66ZM45.46,47H48.9v-.47H45.45Z" transform="translate(-5.81 -5.84)"/><path class="cls-1" d="M40.49,47.66H36.43a.31.31,0,0,1-.31-.31V46.3a.31.31,0,0,1,.31-.31h4.06a.31.31,0,0,1,.31.31v1.05A.31.31,0,0,1,40.49,47.66ZM36.74,47h3.44v-.47H36.74Z" transform="translate(-5.81 -5.84)"/><path class="cls-1" d="M31.77,47.66H27.71a.31.31,0,0,1-.31-.31V46.3a.31.31,0,0,1,.31-.31h4.06a.3.3,0,0,1,.3.31v1.05A.31.31,0,0,1,31.77,47.66ZM28,47h3.43v-.47H28Z" transform="translate(-5.81 -5.84)"/><path class="cls-1" d="M23.05,47.66H19a.31.31,0,0,1-.31-.31V46.3A.31.31,0,0,1,19,46h4.05a.31.31,0,0,1,.31.31v1.05A.31.31,0,0,1,23.05,47.66ZM19.31,47h3.43v-.47H19.31Z" transform="translate(-5.81 -5.84)"/><path class="cls-1" d="M70.93,47.66h-4a.31.31,0,0,1-.31-.31V46.3a.31.31,0,0,1,.31-.31h4a.31.31,0,0,1,.31.31v1.05a.31.31,0,0,1-.31.31ZM67.18,47h3.43v-.47H67.18Z" transform="translate(-5.81 -5.84)"/><path class="cls-1" d="M58.12,47.66H54.06a.3.3,0,0,1-.3-.31V46.3a.3.3,0,0,1,.3-.31h4.06a.31.31,0,0,1,.31.31v1.05A.33.33,0,0,1,58.12,47.66ZM54.38,47h3.44v-.47H54.37Z" transform="translate(-5.81 -5.84)"/><path class="cls-1" d="M75.17,59.26H49.83a.31.31,0,0,1-.31-.31V56.84a.31.31,0,0,1,.31-.31H75.17a.31.31,0,0,1,.31.31V59A.31.31,0,0,1,75.17,59.26Zm-25-.62H74.86V57.15H50.14Z" transform="translate(-5.81 -5.84)"/><path class="cls-1" d="M75.55,30.77h-26a.3.3,0,0,1-.31-.3.28.28,0,0,1,.17-.28l13-6.6a.34.34,0,0,1,.28,0l13,6.6a.3.3,0,0,1-.14.58ZM50.8,30.16H74.25L62.52,24.21Z" transform="translate(-5.81 -5.84)"/><path class="cls-1" d="M62.5,28.68a1.36,1.36,0,1,1,1.36-1.36h0a1.37,1.37,0,0,1-1.35,1.36Zm0-2.1a.74.74,0,1,0,.74.74h0a.74.74,0,0,0-.74-.72Z" transform="translate(-5.81 -5.84)"/><path class="cls-1" d="M48.39,43.57H45.92a.31.31,0,0,1-.31-.31V38.43a.31.31,0,0,1,.31-.31h2.47a.31.31,0,0,1,.31.31v4.82a.32.32,0,0,1-.3.32h0ZM46.21,43h1.86V38.74H46.21Z" transform="translate(-5.81 -5.84)"/><path class="cls-1" d="M39.7,43.57H37.23a.3.3,0,0,1-.3-.31V38.43a.3.3,0,0,1,.3-.31H39.7a.31.31,0,0,1,.31.31v4.82a.32.32,0,0,1-.3.32h0ZM37.52,43h1.86V38.74H37.52Z" transform="translate(-5.81 -5.84)"/><path class="cls-1" d="M31,43.57H28.52a.31.31,0,0,1-.31-.31V38.43a.31.31,0,0,1,.31-.31H31a.31.31,0,0,1,.31.31v4.82a.32.32,0,0,1-.31.32ZM28.81,43h1.85V38.74H28.81Z" transform="translate(-5.81 -5.84)"/><path class="cls-1" d="M22.27,43.57H19.8a.31.31,0,0,1-.31-.31V38.43a.31.31,0,0,1,.31-.31h2.47a.31.31,0,0,1,.31.31v4.82a.33.33,0,0,1-.31.32ZM20.09,43h1.85V38.74H20.09Z" transform="translate(-5.81 -5.84)"/><path class="cls-1" d="M48.39,52.49H45.92a.31.31,0,0,1-.31-.31V47.35a.31.31,0,0,1,.31-.31h2.47a.31.31,0,0,1,.31.31v4.83A.31.31,0,0,1,48.39,52.49Zm-2.18-.62h1.86V47.66H46.21Z" transform="translate(-5.81 -5.84)"/><path class="cls-1" d="M39.7,52.49H37.23a.3.3,0,0,1-.3-.31V47.35a.3.3,0,0,1,.3-.31H39.7a.31.31,0,0,1,.31.31v4.83A.31.31,0,0,1,39.7,52.49Zm-2.18-.62h1.86V47.66H37.52Z" transform="translate(-5.81 -5.84)"/><path class="cls-1" d="M31,52.49H28.52a.31.31,0,0,1-.31-.31V47.35a.31.31,0,0,1,.31-.31H31a.31.31,0,0,1,.31.31v4.83A.31.31,0,0,1,31,52.49Zm-2.18-.62h1.85V47.66H28.81Z" transform="translate(-5.81 -5.84)"/><path class="cls-1" d="M22.27,52.49H19.8a.31.31,0,0,1-.31-.31V47.35A.31.31,0,0,1,19.8,47h2.47a.31.31,0,0,1,.31.31v4.83A.31.31,0,0,1,22.27,52.49Zm-2.18-.62h1.85V47.66H20.09Z" transform="translate(-5.81 -5.84)"/><path class="cls-1" d="M52,55H16.26a.31.31,0,0,1-.31-.31V33.61a.31.31,0,0,1,.31-.31H52a.31.31,0,0,1,.31.31V54.73A.31.31,0,0,1,52,55Zm-35.38-.62H51.64V33.94H16.57Z" transform="translate(-5.81 -5.84)"/><path class="cls-1" d="M79.87,38.63H75.79a.3.3,0,0,1-.3-.31v-1a.3.3,0,0,1,.3-.31h4.08a.31.31,0,0,1,.31.31v1A.31.31,0,0,1,79.87,38.63ZM76.12,38h3.44v-.43H76.1Z" transform="translate(-5.81 -5.84)"/><path class="cls-1" d="M110,33.94H74.19a.31.31,0,0,1-.31-.31V32.58a.31.31,0,0,1,.31-.31H110a.31.31,0,0,1,.31.31v1a.31.31,0,0,1-.29.33h0ZM74.5,33.32h35.14v-.44H74.5Z" transform="translate(-5.81 -5.84)"/><path class="cls-1" d="M75.55,31.83h-26a.31.31,0,0,1-.31-.31V30.47a.31.31,0,0,1,.31-.31H75.55a.31.31,0,0,1,.31.31v1.05A.31.31,0,0,1,75.55,31.83Zm-25.73-.62H75.24v-.44H49.81Z" transform="translate(-5.81 -5.84)"/><path class="cls-1" d="M88.56,38.63h-4a.31.31,0,0,1-.31-.31v-1a.31.31,0,0,1,.31-.31h4a.31.31,0,0,1,.31.31v1A.31.31,0,0,1,88.56,38.63ZM84.82,38h3.43v-.43H84.8Z" transform="translate(-5.81 -5.84)"/><path class="cls-1" d="M97.28,38.63h-4a.31.31,0,0,1-.31-.31v-1a.31.31,0,0,1,.31-.31h4a.31.31,0,0,1,.31.31v1A.31.31,0,0,1,97.28,38.63ZM93.54,38H97v-.43H93.54Z" transform="translate(-5.81 -5.84)"/><path class="cls-1" d="M93.64,35.9h-1a.31.31,0,0,1-.31-.31v-2a.31.31,0,0,1,.31-.31h1a.31.31,0,0,1,.31.31v2a.3.3,0,0,1-.29.32h0Zm-.74-.61h.43V33.94H92.9Z" transform="translate(-5.81 -5.84)"/><path class="cls-1" d="M86.71,35.9h-1a.31.31,0,0,1-.31-.31v-2a.31.31,0,0,1,.31-.31h1a.31.31,0,0,1,.31.31v2a.3.3,0,0,1-.29.32h0ZM86,35.29h.44V33.94H86Z" transform="translate(-5.81 -5.84)"/><path class="cls-1" d="M79.78,35.9h-1a.31.31,0,0,1-.31-.31v-2a.31.31,0,0,1,.31-.31h1a.31.31,0,0,1,.31.31v2a.3.3,0,0,1-.29.32h0ZM79,35.29h.44V33.94H79Z" transform="translate(-5.81 -5.84)"/><path class="cls-1" d="M76.32,35.9H75.26a.31.31,0,0,1-.31-.31v-2a.31.31,0,0,1,.31-.31h1.06a.31.31,0,0,1,.31.31v2a.3.3,0,0,1-.29.32h0Zm-.75-.61H76V33.94h-.46Z" transform="translate(-5.81 -5.84)"/><path class="cls-1" d="M100.57,35.9h-1a.31.31,0,0,1-.31-.31v-2a.31.31,0,0,1,.31-.31h1a.31.31,0,0,1,.31.31v2a.3.3,0,0,1-.29.32h0Zm-.74-.61h.4V33.94h-.44Z" transform="translate(-5.81 -5.84)"/><path class="cls-1" d="M104,35.9h-1a.31.31,0,0,1-.31-.31v-2a.31.31,0,0,1,.31-.31h1a.31.31,0,0,1,.31.31v2a.3.3,0,0,1-.29.32h0Zm-.74-.61h.44V33.94h-.41Z" transform="translate(-5.81 -5.84)"/><path class="cls-1" d="M107.5,35.9h-1a.31.31,0,0,1-.31-.31v-2a.31.31,0,0,1,.31-.31h1a.31.31,0,0,1,.31.31v2a.3.3,0,0,1-.29.32h0Zm-.74-.61h.43V33.94h-.43Z" transform="translate(-5.81 -5.84)"/><path class="cls-1" d="M97.1,35.9h-1a.31.31,0,0,1-.31-.31v-2a.31.31,0,0,1,.31-.31h1a.31.31,0,0,1,.31.31v2a.3.3,0,0,1-.29.32h0Zm-.74-.61h.44V33.94h-.44Z" transform="translate(-5.81 -5.84)"/><path class="cls-1" d="M90.18,35.9H89.12a.3.3,0,0,1-.3-.31v-2a.3.3,0,0,1,.3-.31h1.06a.31.31,0,0,1,.31.31v2a.3.3,0,0,1-.29.32h0Zm-.75-.61h.44V33.94h-.44Z" transform="translate(-5.81 -5.84)"/><path class="cls-1" d="M83.25,35.9H82.19a.3.3,0,0,1-.3-.31v-2a.3.3,0,0,1,.3-.31h1.06a.31.31,0,0,1,.31.31v2a.3.3,0,0,1-.29.32h0Zm-.75-.61H83V33.94h-.44Z" transform="translate(-5.81 -5.84)"/><path class="cls-1" d="M106,38.63h-4.06a.31.31,0,0,1-.31-.31v-1a.31.31,0,0,1,.31-.31H106a.31.31,0,0,1,.31.31v1A.31.31,0,0,1,106,38.63ZM102.25,38h3.44v-.43h-3.44Z" transform="translate(-5.81 -5.84)"/><path class="cls-1" d="M79.87,47.66H75.79a.3.3,0,0,1-.3-.31V46.3a.3.3,0,0,1,.3-.31h4.08a.31.31,0,0,1,.31.31v1.05A.31.31,0,0,1,79.87,47.66ZM76.12,47h3.44v-.47H76.1Z" transform="translate(-5.81 -5.84)"/><path class="cls-1" d="M88.56,47.66h-4a.31.31,0,0,1-.31-.31V46.3a.31.31,0,0,1,.31-.31h4a.31.31,0,0,1,.31.31v1.05A.31.31,0,0,1,88.56,47.66ZM84.82,47h3.43v-.47H84.8Z" transform="translate(-5.81 -5.84)"/><path class="cls-1" d="M97.28,47.66h-4a.31.31,0,0,1-.31-.31V46.3a.31.31,0,0,1,.31-.31h4a.31.31,0,0,1,.31.31v1.05A.31.31,0,0,1,97.28,47.66ZM93.54,47H97v-.47H93.54Z" transform="translate(-5.81 -5.84)"/><path class="cls-1" d="M106,47.66h-4.06a.31.31,0,0,1-.31-.31V46.3a.31.31,0,0,1,.31-.31H106a.31.31,0,0,1,.31.31v1.05A.31.31,0,0,1,106,47.66ZM102.25,47h3.44v-.47h-3.44Z" transform="translate(-5.81 -5.84)"/><path class="cls-1" d="M90.56,32.85h-8a.3.3,0,0,1-.31-.3.3.3,0,0,1,.17-.29l4-2a.34.34,0,0,1,.28,0l4,2a.31.31,0,0,1,.15.41.33.33,0,0,1-.29.18Zm-6.75-.62h5.46l-2.73-1.38Z" transform="translate(-5.81 -5.84)"/><path class="cls-1" d="M50.81,33.94H15.07a.31.31,0,0,1-.31-.31V32.58a.31.31,0,0,1,.31-.31H50.81a.31.31,0,0,1,.31.31v1a.31.31,0,0,1-.29.33h0Zm-35.45-.62H50.5v-.44H15.36Z" transform="translate(-5.81 -5.84)"/><path class="cls-1" d="M42.48,32.85h-8a.31.31,0,0,1-.32-.3.33.33,0,0,1,.17-.29l4-2a.34.34,0,0,1,.28,0l4,2a.31.31,0,0,1-.14.59Zm-6.75-.62h5.46l-2.73-1.38Z" transform="translate(-5.81 -5.84)"/><path class="cls-1" d="M79.06,43.57H76.6a.31.31,0,0,1-.31-.31V38.43a.31.31,0,0,1,.31-.31h2.46a.31.31,0,0,1,.31.31v4.82a.31.31,0,0,1-.3.32h0ZM76.89,43h1.85V38.74H76.89Z" transform="translate(-5.81 -5.84)"/><path class="cls-1" d="M87.78,43.57H85.31a.31.31,0,0,1-.31-.31V38.43a.31.31,0,0,1,.31-.31h2.47a.31.31,0,0,1,.31.31v4.82a.32.32,0,0,1-.3.32h0ZM85.6,43h1.85V38.74H85.6Z" transform="translate(-5.81 -5.84)"/><path class="cls-1" d="M96.53,43.57H94.06a.31.31,0,0,1-.31-.31V38.43a.31.31,0,0,1,.31-.31h2.47a.31.31,0,0,1,.31.31v4.82a.32.32,0,0,1-.3.32h0ZM94.35,43H96.2V38.74H94.35Z" transform="translate(-5.81 -5.84)"/><path class="cls-1" d="M105.21,43.57h-2.47a.3.3,0,0,1-.3-.31V38.43a.3.3,0,0,1,.3-.31h2.47a.31.31,0,0,1,.31.31v4.82a.31.31,0,0,1-.3.32h0ZM103,43h1.86V38.74H103Z" transform="translate(-5.81 -5.84)"/><path class="cls-1" d="M79.06,52.49H76.6a.31.31,0,0,1-.31-.31V47.35A.31.31,0,0,1,76.6,47h2.46a.31.31,0,0,1,.31.31v4.83A.31.31,0,0,1,79.06,52.49Zm-2.17-.62h1.85V47.66H76.89Z" transform="translate(-5.81 -5.84)"/><path class="cls-1" d="M87.78,52.49H85.31a.31.31,0,0,1-.31-.31V47.35a.31.31,0,0,1,.31-.31h2.47a.31.31,0,0,1,.31.31v4.83A.31.31,0,0,1,87.78,52.49Zm-2.18-.62h1.85V47.66H85.6Z" transform="translate(-5.81 -5.84)"/><path class="cls-1" d="M96.53,52.49H94.06a.31.31,0,0,1-.31-.31V47.35a.31.31,0,0,1,.31-.31h2.47a.31.31,0,0,1,.31.31v4.83A.31.31,0,0,1,96.53,52.49Zm-2.18-.62H96.2V47.66H94.35Z" transform="translate(-5.81 -5.84)"/><path class="cls-1" d="M105.21,52.49h-2.47a.3.3,0,0,1-.3-.31V47.35a.3.3,0,0,1,.3-.31h2.47a.31.31,0,0,1,.31.31v4.83A.31.31,0,0,1,105.21,52.49ZM103,51.87h1.86V47.66H103Z" transform="translate(-5.81 -5.84)"/><path class="cls-1" d="M108.74,55H73.08a.31.31,0,0,1-.31-.31V33.61a.31.31,0,0,1,.31-.31h35.69a.31.31,0,0,1,.31.31V54.73a.31.31,0,0,1-.31.31Zm-35.38-.62h35.07V33.94H73.36Z" transform="translate(-5.81 -5.84)"/><path class="cls-1" d="M9.47,83.84a6.85,6.85,0,0,1-2.68-2.55,7.4,7.4,0,0,1,0-7.37,6.85,6.85,0,0,1,2.68-2.55,8.06,8.06,0,0,1,3.84-.92,8,8,0,0,1,3.25.62A6.6,6.6,0,0,1,19,72.88L16.92,74.8a4.44,4.44,0,0,0-3.48-1.62,4.66,4.66,0,0,0-2.26.55A4,4,0,0,0,9.61,75.3a4.92,4.92,0,0,0,0,4.57,3.89,3.89,0,0,0,1.57,1.57,4.57,4.57,0,0,0,2.29.56,4.4,4.4,0,0,0,3.45-1.61l2,1.89a6.27,6.27,0,0,1-2.47,1.85,8.07,8.07,0,0,1-3.25.62A8,8,0,0,1,9.47,83.84Z" transform="translate(-5.81 -5.84)"/><path class="cls-1" d="M33.93,81.55H27.51l-1.23,3H23l6.17-13.83h3.17l6.17,13.83H35.15Zm-1-2.43-2.19-5.29-2.2,5.29Z" transform="translate(-5.81 -5.84)"/><path class="cls-1" d="M56.48,84.52V76.2L52.42,83H51L46.9,76.38v8.11h-3V70.67h2.63l5.18,8.61,5.1-8.59h2.63l0,13.83Z" transform="translate(-5.81 -5.84)"/><path class="cls-1" d="M75.89,71.3A4.77,4.77,0,0,1,78,73a5.18,5.18,0,0,1,0,5.32,4.64,4.64,0,0,1-2.08,1.74,7.79,7.79,0,0,1-3.19.62H69.91v3.81H66.72V70.71h6A7.76,7.76,0,0,1,75.89,71.3Zm-1.18,6.17A2.47,2.47,0,0,0,74.78,74l-.07-.06a3.35,3.35,0,0,0-2.19-.62h-2.6v4.8h2.6A3.36,3.36,0,0,0,74.71,77.47Z" transform="translate(-5.81 -5.84)"/><path class="cls-1" d="M86.39,83.11a6.27,6.27,0,0,1-1.65-4.67V70.69h3.2v7.62Q87.94,82,91,82a2.92,2.92,0,0,0,2.28-.9,4.14,4.14,0,0,0,.79-2.82V70.69h3.16v7.74A5.71,5.71,0,0,1,91,84.75,6.21,6.21,0,0,1,86.39,83.11Z" transform="translate(-5.81 -5.84)"/><path class="cls-1" d="M105.74,84.31a7.31,7.31,0,0,1-2.46-1.16l1.08-2.4a7.28,7.28,0,0,0,2.11,1,8,8,0,0,0,2.47.4,4,4,0,0,0,2-.41,1.24,1.24,0,0,0,.66-1.07,1,1,0,0,0-.39-.82,2.83,2.83,0,0,0-1-.53c-.42-.13-1-.28-1.63-.43a23.23,23.23,0,0,1-2.59-.75,4.19,4.19,0,0,1-1.73-1.24,3.27,3.27,0,0,1-.72-2.21,3.88,3.88,0,0,1,.66-2.18,4.32,4.32,0,0,1,2-1.55,8,8,0,0,1,3.21-.57,10.65,10.65,0,0,1,2.58.31,7.64,7.64,0,0,1,2.21.91l-1,2.43A7.76,7.76,0,0,0,109.37,73a3.5,3.5,0,0,0-2,.44,1.29,1.29,0,0,0-.62,1.14,1.11,1.11,0,0,0,.74,1.06,11.78,11.78,0,0,0,2.26.68,23.07,23.07,0,0,1,2.58.75,4.24,4.24,0,0,1,1.73,1.19,3.11,3.11,0,0,1,.72,2.19,3.72,3.72,0,0,1-.66,2.16,4.57,4.57,0,0,1-2,1.55,8.28,8.28,0,0,1-3.23.57A11.89,11.89,0,0,1,105.74,84.31Z" transform="translate(-5.81 -5.84)"/><path class="cls-1" d="M51.06,91.41V95.5h-.75V93.75H48.19V95.5h-.76V91.41h.76V93.1h2.12V91.41Z" transform="translate(-5.81 -5.84)"/><path class="cls-1" d="M54.12,95.29a2,2,0,0,1-.79-.75,2.19,2.19,0,0,1,0-2.16,2,2,0,0,1,.79-.75,2.44,2.44,0,0,1,2.26,0,2,2,0,0,1,.79.75,2.19,2.19,0,0,1,0,2.16,2.07,2.07,0,0,1-.79.79,2.5,2.5,0,0,1-2.26,0ZM56,94.71a1.2,1.2,0,0,0,.51-.51,1.5,1.5,0,0,0,0-1.48,1.14,1.14,0,0,0-.51-.51,1.53,1.53,0,0,0-1.47,0,1.22,1.22,0,0,0-.52.51,1.55,1.55,0,0,0,0,1.48,1.28,1.28,0,0,0,.52.51A1.53,1.53,0,0,0,56,94.71Z" transform="translate(-5.81 -5.84)"/><path class="cls-1" d="M59.78,95.43a1.87,1.87,0,0,1-.7-.36l.27-.62a2,2,0,0,0,.61.33,2.34,2.34,0,0,0,.74.12,1.26,1.26,0,0,0,.68-.15.45.45,0,0,0,.22-.38.38.38,0,0,0-.12-.29.77.77,0,0,0-.33-.18,3.47,3.47,0,0,0-.52-.15,6.61,6.61,0,0,1-.76-.22,1.46,1.46,0,0,1-.5-.35,1,1,0,0,1-.21-.62,1,1,0,0,1,.19-.61,1.27,1.27,0,0,1,.55-.45,2.36,2.36,0,0,1,.91-.16,3,3,0,0,1,.73.09,2,2,0,0,1,.62.27l-.24.62a2,2,0,0,0-.56-.24,1.61,1.61,0,0,0-.57-.08,1.14,1.14,0,0,0-.67.15.5.5,0,0,0-.22.4.37.37,0,0,0,.13.29,1.09,1.09,0,0,0,.32.17l.52.15a5,5,0,0,1,.75.22,1.31,1.31,0,0,1,.5.34,1,1,0,0,1,.21.62,1.13,1.13,0,0,1-.19.62,1.24,1.24,0,0,1-.55.44,2.38,2.38,0,0,1-.92.16A3,3,0,0,1,59.78,95.43Z" transform="translate(-5.81 -5.84)"/><path class="cls-1" d="M65.06,92.06H63.7v-.62h3.47v.62H65.81v3.45h-.75Z" transform="translate(-5.81 -5.84)"/><path class="cls-1" d="M72,94.87v.61H68.89V91.39h3V92H69.65v1.06h2v.62h-2v1.13Z" transform="translate(-5.81 -5.84)"/><path class="cls-1" d="M74,91.41h.76v3.45H76.9v.62H74Z" transform="translate(-5.81 -5.84)"/><path class="cls-1" d="M44.19,93.79h-29a.31.31,0,1,1,0-.62h29a.31.31,0,1,1,0,.62Z" transform="translate(-5.81 -5.84)"/><path class="cls-1" d="M108.74,93.79H79.06a.31.31,0,0,1,0-.62h29.68a.31.31,0,0,1,0,.62Z" transform="translate(-5.81 -5.84)"/><path class="cls-1" d="M48.48,13.64a3.9,3.9,0,1,1,0-7.8.31.31,0,0,1,.3.23.32.32,0,0,1-.15.35,3,3,0,0,0-1.23,3.85h0a2.94,2.94,0,0,0,3.77,1.44.32.32,0,0,1,.4.16.29.29,0,0,1-.05.32,3.84,3.84,0,0,1-3,1.45Zm-1.14-7-.29.13a3.28,3.28,0,1,0,2.86,5.91l.28-.16a3.58,3.58,0,0,1-3.37-2h0A3.58,3.58,0,0,1,47.34,6.66Z" transform="translate(-5.81 -5.84)"/><path class="cls-1" d="M60.57,12.41a.29.29,0,0,1-.21-.09l-.93-.92a.31.31,0,1,1,.44-.44l.93.93a.31.31,0,0,1,0,.44h0a.32.32,0,0,1-.21.08Z" transform="translate(-5.81 -5.84)"/><path class="cls-1" d="M59.65,12.41a.29.29,0,0,1-.3-.3h0a.32.32,0,0,1,.08-.21l.93-.93a.3.3,0,0,1,.43,0h0a.32.32,0,0,1,0,.41l-.93.93A.35.35,0,0,1,59.65,12.41Z" transform="translate(-5.81 -5.84)"/><path class="cls-1" d="M55.32,17.68a.36.36,0,0,1-.22-.09l-.93-.94a.3.3,0,0,1,0-.43.3.3,0,0,1,.44,0l.93.93a.3.3,0,0,1,0,.43h0a.32.32,0,0,1-.21.08Z" transform="translate(-5.81 -5.84)"/><path class="cls-1" d="M54.38,17.68a.31.31,0,0,1-.3-.3v0a.29.29,0,0,1,.09-.21l.93-.93a.31.31,0,1,1,.44.44l-.94.91A.33.33,0,0,1,54.38,17.68Z" transform="translate(-5.81 -5.84)"/><path class="cls-1" d="M72.64,19.92a.36.36,0,0,1-.22-.09l-.92-.94a.3.3,0,0,1,0-.43.3.3,0,0,1,.44,0l.92.93a.3.3,0,0,1,0,.43h0a.3.3,0,0,1-.21.08Z" transform="translate(-5.81 -5.84)"/><path class="cls-1" d="M71.71,19.92a.31.31,0,0,1-.3-.3v0a.3.3,0,0,1,.09-.21l.92-.93a.31.31,0,0,1,.44.44l-.92.93A.32.32,0,0,1,71.71,19.92Z" transform="translate(-5.81 -5.84)"/><path class="cls-1" d="M32.87,19a.36.36,0,0,1-.22-.09l-.92-.94a.3.3,0,0,1,0-.43.3.3,0,0,1,.44,0l.93.93a.3.3,0,0,1,0,.43h0a.32.32,0,0,1-.21.08Z" transform="translate(-5.81 -5.84)"/><path class="cls-1" d="M32,19a.31.31,0,0,1-.31-.3v0a.29.29,0,0,1,.09-.21l.93-.93a.31.31,0,0,1,.44.44l-.94.93A.33.33,0,0,1,32,19Z" transform="translate(-5.81 -5.84)"/></g></svg>